<?xml version="1.0" encoding="utf-8"?>
<!-- Generator: Adobe Illustrator 16.0.3, SVG Export Plug-In . SVG Version: 6.00 Build 0)  -->
<!DOCTYPE svg PUBLIC "-//W3C//DTD SVG 1.1//EN" "http://www.w3.org/Graphics/SVG/1.1/DTD/svg11.dtd">
<svg version="1.1" id="Layer_1" xmlns="http://www.w3.org/2000/svg" xmlns:xlink="http://www.w3.org/1999/xlink" x="0px" y="0px"
	 width="25px" height="25px" viewBox="0 0 25 25" enable-background="new -3.038 -2.5 26.076 25"
	 xml:space="preserve">
<g>
    <!--<path fill="#303841" d="M9.995-2C5.14-2,1.199,1.95,1.199,6.804c0,4.033,2.695,7.506,6.582,8.5l1.84,6.408-->
		<!--C9.667,21.889,9.82,22,9.995,22c0.176,0,0.333-0.111,0.379-0.287l1.844-6.408c3.891-0.994,6.579-4.468,6.579-8.5-->
		<!--C18.805,1.95,14.852-2,9.995-2z M9.995,12.805c-3.313,0-5.998-2.691-5.998-6c0-3.311,2.685-5.997,5.998-5.997s6,2.686,6,5.997-->
		<!--C15.995,10.113,13.309,12.805,9.995,12.805z"/>-->
	<path fill="#75C059" d="M20.37831016294427,9.424810658637618 c0,4.102824975443448 -3.3356401540140825,7.4483963245569385 -7.4483963245569385,7.4483963245569385 c-4.112756170542856,0 -7.445913525782086,-3.345571349113492 -7.445913525782086,-7.4483963245569385 c0,-4.110273371768004 3.33315735523923,-7.4483963245569385 7.445913525782086,-7.4483963245569385 C17.043911408317612,1.9764143340806806 20.37831016294427,5.314537286869616 20.37831016294427,9.424810658637618 z"/>
</g>
</svg>


