<svg version="1.1" id="Layer_1" xmlns="http://www.w3.org/2000/svg" xmlns:xlink="http://www.w3.org/1999/xlink" x="0" y="0"
	 width="50" height="50" viewBox="0 0 26.076 25" enable-background="new 0 0 26.076 25"
	 xml:space="preserve">
<g class="currentLayer" style=""><title>Layer 1</title>
	<path fill="#303841" d="M12.926034371256828,0.6206896305084227 C8.071034371256829,0.6206896305084227 4.130034371256828,4.570689630508423 4.130034371256828,9.424689630508423 c0,4.033 2.6950000000000003,7.506 6.582,8.5 l1.84,6.408 C12.598034371256828,24.509689630508422 12.751034371256829,24.620689630508423 12.926034371256828,24.620689630508423 c0.17600000000000005,0 0.3330000000000002,-0.11100000000000003 0.3790000000000001,-0.2870000000000001 l1.844,-6.408 c3.891,-0.994 6.579,-4.468 6.579,-8.5 C21.736034371256828,4.570689630508423 17.78303437125683,0.6206896305084227 12.926034371256828,0.6206896305084227 zM12.926034371256828,15.425689630508423 c-3.313,0 -5.998,-2.6910000000000007 -5.998,-6 c0,-3.311 2.685,-5.997 5.998,-5.997 s6,2.686 6,5.997 C18.926034371256826,12.733689630508422 16.240034371256826,15.425689630508423 12.926034371256828,15.425689630508423 z" id="svg_2" class="" stroke="none"/>
	<path fill="#e8633a" d="M20.37831016294427,9.424810658637618 c0,4.102824975443448 -3.3356401540140825,7.4483963245569385 -7.4483963245569385,7.4483963245569385 c-4.112756170542856,0 -7.445913525782086,-3.345571349113492 -7.445913525782086,-7.4483963245569385 c0,-4.110273371768004 3.33315735523923,-7.4483963245569385 7.445913525782086,-7.4483963245569385 C17.043911408317612,1.9764143340806806 20.37831016294427,5.314537286869616 20.37831016294427,9.424810658637618 z" id="svg_3" class="" stroke="none"/>
</g></svg>
