<?xml version="1.0"?>
<svg xmlns="http://www.w3.org/2000/svg" height="512px" viewBox="0 0 512 512.001" width="512px" class=""><g transform="matrix(0.785678 0 0 0.785678 54.8663 54.8665)"><path d="m482.03125 314v-124.164062c17.441406-6.195313 29.96875-22.867188 29.96875-42.414063 0-24.804687-20.171875-44.984375-44.96875-44.984375-12.253906 0-23.375 4.925781-31.492188 12.902344l-133.492187-65.222656c.195313-1.683594.292969-3.398438.292969-5.132813 0-24.804687-20.171875-44.984375-44.96875-44.984375s-44.972656 20.179688-44.972656 44.984375c0 1.65625.089843 3.292969.265624 4.90625l-136.039062 65.613281c-8.132812-8.074218-19.320312-13.066406-31.65625-13.066406-24.796875 0-44.96875 20.179688-44.96875 44.984375 0 19.546875 12.527344 36.21875 29.96875 42.414063v124.164062c-17.441406 6.191406-29.96875 22.867188-29.96875 42.410156 0 24.804688 20.171875 44.984375 44.96875 44.984375 11.839844 0 22.625-4.597656 30.664062-12.105469l137.203126 71.449219c-.289063 2.050781-.4375 4.148438-.4375 6.277344 0 24.804687 20.171874 44.984375 44.96875 44.984375 24.796874 0 44.972656-20.179688 44.972656-44.984375 0-2.210937-.160156-4.386719-.472656-6.515625l134.675781-71.046875c8.023437 7.410156 18.734375 11.941406 30.488281 11.941406 24.796875 0 44.96875-20.179687 44.96875-44.984375 0-19.542968-12.527344-36.21875-29.96875-42.410156zm-392.355469 37.503906 36.472657-17.589844c7.460937-3.597656 10.589843-12.566406 6.992187-20.027343-3.597656-7.460938-12.5625-10.59375-20.027344-6.996094l-36.488281 17.597656c-4.664062-4.628906-10.335938-8.246093-16.652344-10.488281v-124.164062c6.09375-2.164063 11.585938-5.605469 16.152344-10l136.621094 68.53125c-.230469 1.835937-.347656 3.707031-.347656 5.605468 0 1.65625.089843 3.292969.265624 4.90625l-53.234374 25.675782c-7.460938 3.597656-10.59375 12.566406-6.996094 20.027343 2.585937 5.363281 7.941406 8.488281 13.523437 8.488281 2.183594 0 4.402344-.480468 6.503907-1.496093l53.253906-25.683594c4.664062 4.632813 10.335937 8.25 16.652344 10.492187v128.222657c-5.875 2.085937-11.191407 5.359375-15.660157 9.53125l-137.203125-71.445313c.289063-2.054687.4375-4.148437.4375-6.28125 0-1.65625-.089844-3.292968-.265625-4.90625zm167.695313-212.515625c8.28125 0 15-6.714843 15-15v-36.59375c6.242187-2.214843 11.855468-5.777343 16.492187-10.328125l133.488281 65.222656c-.191406 1.683594-.292968 3.398438-.292968 5.132813 0 1.976563.128906 3.925781.378906 5.835937l-134.082031 68.140626c-4.535157-4.320313-9.96875-7.703126-15.988281-9.835938v-37.574219c0-8.285156-6.714844-15-15-15-8.28125 0-15 6.714844-15 15v37.574219c-6.089844 2.160156-11.585938 5.601562-16.152344 10l-136.621094-68.535156c.230469-1.835938.347656-3.707032.347656-5.605469 0-1.65625-.089844-3.292969-.265625-4.90625l136.039063-65.609375c4.664062 4.628906 10.335937 8.246094 16.652344 10.488281v36.59375c.003906 8.285157 6.71875 15 15.003906 15zm15 157.394531c6.242187-2.214843 11.855468-5.777343 16.492187-10.328124l25.597657 12.507812c2.117187 1.035156 4.363281 1.523438 6.574218 1.523438 5.550782 0 10.886719-3.09375 13.488282-8.417969 3.636718-7.441407.550781-16.425781-6.894532-20.0625l-25.582031-12.5c.195313-1.683594.292969-3.398438.292969-5.132813 0-1.980468-.128906-3.925781-.378906-5.835937l134.082031-68.140625c4.535156 4.316406 9.96875 7.699218 15.988281 9.835937v124.167969c-6.246094 2.214844-11.859375 5.777344-16.492188 10.328125l-65.125-31.816406c-7.441406-3.640625-16.425781-.550781-20.0625 6.890625-3.636718 7.445312-.550781 16.425781 6.894532 20.0625l65.105468 31.8125c-.191406 1.683594-.292968 3.398437-.292968 5.132812 0 2.214844.160156 4.390625.472656 6.515625l-134.675781 71.046875c-4.433594-4.09375-9.6875-7.308594-15.484375-9.367187zm0 0" data-original="#000000" class="active-path" data-old_color="#57cab6" fill="#57cab6"/></g> </svg>
