<?xml version="1.0"?>
<svg xmlns="http://www.w3.org/2000/svg" height="512px" viewBox="-88 0 512 512" width="512px" class=""><g><path d="m167.636719 353.46875c5.015625 0 9.097656-4.082031 9.097656-9.101562 0-5.019532-4.082031-9.101563-9.097656-9.101563-5.019531 0-9.105469 4.082031-9.105469 9.101563 0 5.019531 4.085938 9.101562 9.105469 9.101562zm0 0" data-original="#000000" class="active-path" data-old_color="#ffffff" fill="#ffffff"/><path d="m167.636719 417.734375c40.453125 0 73.363281-32.914063 73.363281-73.367187 0-40.457032-32.910156-73.367188-73.363281-73.367188-40.457031 0-73.367188 32.910156-73.367188 73.367188 0 40.453124 32.910157 73.367187 73.367188 73.367187zm0-112.46875c21.558593 0 39.097656 17.542969 39.097656 39.101563 0 21.5625-17.539063 39.101562-39.097656 39.101562-21.5625 0-39.105469-17.539062-39.105469-39.101562 0-21.558594 17.542969-39.101563 39.105469-39.101563zm0 0" data-original="#000000" class="active-path" data-old_color="#ffffff" fill="#ffffff"/><path d="m280.101562 0h-224.933593c-30.421875 0-55.167969 24.746094-55.167969 55.164062v121.570313h335.269531v-121.570313c0-30.417968-24.75-55.164062-55.167969-55.164062zm0 0" data-original="#000000" class="active-path" data-old_color="#ffffff" fill="#ffffff"/><path d="m0 456.832031c0 30.421875 24.746094 55.167969 55.167969 55.167969h224.933593c30.417969 0 55.167969-24.746094 55.167969-55.167969v-250.097656h-335.269531zm167.636719-215.832031c56.996093 0 103.363281 46.371094 103.363281 103.367188 0 56.996093-46.367188 103.367187-103.363281 103.367187-56.996094 0-103.367188-46.371094-103.367188-103.367187 0-56.996094 46.371094-103.367188 103.367188-103.367188zm0 0" data-original="#000000" class="active-path" data-old_color="#ffffff" fill="#ffffff"/></g> </svg>
