<?xml version="1.0"?>
<svg xmlns="http://www.w3.org/2000/svg" height="512px" viewBox="0 0 512 512" width="512px" class=""><g><path d="m228.339844 394.359375v36.882813c-36.289063-8.878907-68.742188-27.632813-94.347656-53.234376l-46.980469 5.984376-6.125 47.121093c49.972656 49.976563 119.011719 80.886719 195.273437 80.886719h58.820313v-117.640625zm0 0" fill="#00aa95" data-original="#00AA95" class=""/><path d="m80.757812 283.660156h36.882813v-106.640625h-117.640625v58.820313c0 76.261718 30.910156 145.300781 80.886719 195.273437l53.105469-53.105469c-25.601563-25.605468-44.351563-58.058593-53.234376-94.347656zm0 0" fill="#00ee8a" data-original="#00EE8A" class=""/><g fill="#0051bf"><path d="m426.183594 85.816406h-21.210938v21.210938c49.671875 49.675781 77.027344 115.71875 77.027344 185.964844h30c0-78.261719-30.476562-151.835938-85.816406-207.175782zm0 0" data-original="#000000" class=""/><path d="m412.789062 292.992188h30c0-61.695313-25.097656-117.640626-65.617187-158.164063l-19.121094 3.589844-2.082031 17.613281c35.089844 35.089844 56.820312 83.535156 56.820312 136.960938zm0 0" data-original="#000000" class=""/><path d="m343.582031 292.992188h30c0-42.613282-17.335937-81.257813-45.328125-109.246094h-21.199218v21.199218c22.554687 22.558594 36.527343 53.703126 36.527343 88.046876zm0 0" data-original="#000000" class=""/><path d="m274.371094 292.992188h30c0-23.535157-9.574219-44.875-25.03125-60.332032h-23.332032l2.128907 21.203125c10.023437 10.027344 16.234375 23.867188 16.234375 39.128907zm0 0" data-original="#000000" class=""/></g><path d="m219.007812 0v30c70.246094 0 136.289063 27.355469 185.964844 77.027344l21.210938-21.210938c-55.339844-55.339844-128.914063-85.816406-207.175782-85.816406zm0 0" fill="#046eff" data-original="#046EFF" class="active-path" style="fill:#046EFF"/><path d="m219.007812 99.210938c53.425782 0 101.871094 21.730468 136.960938 56.820312l21.203125-21.203125c-40.523437-40.519531-96.46875-65.617187-158.164063-65.617187zm0 0" fill="#046eff" data-original="#046EFF" class="active-path" style="fill:#046EFF"/><path d="m219.007812 168.417969c34.34375 0 65.488282 13.972656 88.046876 36.527343l21.199218-21.199218c-27.988281-27.992188-66.632812-45.328125-109.246094-45.328125zm0 0" fill="#046eff" data-original="#046EFF" class="active-path" style="fill:#046EFF"/><path d="m219.007812 237.628906c15.261719 0 29.101563 6.210938 39.128907 16.234375l21.203125-21.203125c-15.457032-15.457031-36.796875-25.03125-60.332032-25.03125zm0 0" fill="#046eff" data-original="#046EFF" class="active-path" style="fill:#046EFF"/></g> </svg>
