<?xml version="1.0" encoding="utf-8"?>
<!-- Generator: Adobe Illustrator 16.0.3, SVG Export Plug-In . SVG Version: 6.00 Build 0)  -->
<!DOCTYPE svg PUBLIC "-//W3C//DTD SVG 1.1//EN" "http://www.w3.org/Graphics/SVG/1.1/DTD/svg11.dtd">
<svg version="1.1" id="Layer_1" xmlns="http://www.w3.org/2000/svg" xmlns:xlink="http://www.w3.org/1999/xlink" x="0px" y="0px"
	 width="50px" height="50px" viewBox="0 0 50 50" enable-background="new 0 0 50 50" xml:space="preserve">
<g>
	<path fill="#FFFFFF" d="M24.355,22.534c0,1.646-1.338,2.983-2.989,2.983h-7.382c-1.645,0-2.984-1.338-2.984-2.983v-7.382
		c0-1.646,1.339-2.984,2.984-2.984h7.382c1.651,0,2.989,1.339,2.989,2.984V22.534z M22.633,15.152c0-0.692-0.569-1.262-1.267-1.262
		h-7.382c-0.698,0-1.261,0.569-1.261,1.262v7.382c0,0.703,0.563,1.261,1.261,1.261h7.382c0.697,0,1.267-0.558,1.267-1.261V15.152z
		 M22.633,15.152"/>
	<path fill="#FFFFFF" d="M14.445,19.061c-0.235,0-0.427-0.193-0.427-0.435v-0.771c0-1.197,0.794-2.241,1.888-2.241h2.682
		c0.235,0,0.434,0.193,0.434,0.434c0,0.242-0.199,0.435-0.434,0.435h-2.682c-0.67,0-1.027,0.739-1.027,1.373v0.771
		C14.879,18.867,14.681,19.061,14.445,19.061L14.445,19.061z M14.445,19.061"/>
	<path fill="#FFFFFF" d="M14.281,20.537c-0.11,0-0.221-0.051-0.303-0.118c-0.08-0.082-0.124-0.192-0.124-0.316
		c0-0.11,0.044-0.221,0.124-0.303c0.164-0.162,0.443-0.162,0.607,0c0.08,0.082,0.13,0.192,0.13,0.303c0,0.124-0.05,0.234-0.13,0.302
		C14.503,20.486,14.394,20.537,14.281,20.537L14.281,20.537z M14.281,20.537"/>
	<path fill="#FFFFFF" d="M39,22.534c0,1.646-1.338,2.983-2.984,2.983h-7.382c-1.651,0-2.99-1.338-2.99-2.983v-7.382
		c0-1.646,1.338-2.984,2.99-2.984h7.383c1.646,0,2.983,1.339,2.983,2.984V22.534z M37.277,15.152c0-0.692-0.563-1.262-1.261-1.262
		h-7.382c-0.698,0-1.267,0.569-1.267,1.262v7.382c0,0.703,0.569,1.261,1.267,1.261h7.383c0.697,0,1.26-0.558,1.26-1.261V15.152z
		 M37.277,15.152"/>
	<path fill="#FFFFFF" d="M24.355,37.184c0,1.646-1.338,2.984-2.989,2.984h-7.382c-1.645,0-2.984-1.338-2.984-2.984v-7.381
		c0-1.646,1.339-2.984,2.984-2.984h7.382c1.651,0,2.989,1.339,2.989,2.984V37.184z M22.633,29.803c0-0.704-0.569-1.262-1.267-1.262
		h-7.382c-0.698,0-1.261,0.558-1.261,1.262v7.383c0,0.69,0.563,1.26,1.261,1.26h7.382c0.697,0,1.267-0.569,1.267-1.26V29.803z
		 M22.633,29.803"/>
	<path fill="#FFFFFF" d="M39,37.184c0,1.646-1.338,2.984-2.984,2.984h-7.382c-1.651,0-2.99-1.338-2.99-2.984v-7.381
		c0-1.646,1.338-2.984,2.99-2.984h7.383c1.646,0,2.983,1.339,2.983,2.984V37.184z M37.277,29.803c0-0.704-0.563-1.262-1.261-1.262
		h-7.382c-0.698,0-1.267,0.558-1.267,1.262v7.383c0,0.69,0.569,1.26,1.267,1.26h7.383c0.697,0,1.26-0.569,1.26-1.26V29.803z
		 M37.277,29.803"/>
</g>
</svg>
