<?xml version="1.0" encoding="utf-8"?>
<!-- Generator: Adobe Illustrator 16.0.3, SVG Export Plug-In . SVG Version: 6.00 Build 0)  -->
<!DOCTYPE svg PUBLIC "-//W3C//DTD SVG 1.1//EN" "http://www.w3.org/Graphics/SVG/1.1/DTD/svg11.dtd">
<svg version="1.1" id="Layer_1" xmlns="http://www.w3.org/2000/svg" xmlns:xlink="http://www.w3.org/1999/xlink" x="0px" y="0px"
	 width="50px" height="50px" viewBox="0 0 50 50" enable-background="new 0 0 50 50" xml:space="preserve">
<g>
	<polygon fill="#FFFFFF" points="40.243,40.705 40.243,10.705 10.243,10.705 10.243,40.705 36.084,40.705 	"/>
	<line fill="none" stroke="#BDBDBD" stroke-miterlimit="10" x1="20.937" y1="19.17" x2="36.233" y2="19.17"/>
	<line fill="none" stroke="#BDBDBD" stroke-miterlimit="10" x1="20.937" y1="25.685" x2="36.233" y2="25.685"/>
	<line fill="none" stroke="#BDBDBD" stroke-miterlimit="10" x1="20.937" y1="31.795" x2="36.233" y2="31.795"/>
	<path fill="none" stroke="#BDBDBD" stroke-miterlimit="10" d="M19.154,19.094c0,1.19-0.963,2.155-2.154,2.155
		c-1.19,0-2.154-0.965-2.154-2.155c0-1.188,0.964-2.151,2.154-2.151C18.191,16.942,19.154,17.906,19.154,19.094z"/>
	<path fill="none" stroke="#BDBDBD" stroke-miterlimit="10" d="M19.154,25.684c0,1.19-0.963,2.157-2.154,2.157
		c-1.19,0-2.154-0.967-2.154-2.157c0-1.187,0.964-2.15,2.154-2.15C18.191,23.533,19.154,24.497,19.154,25.684z"/>
	<path fill="none" stroke="#BDBDBD" stroke-miterlimit="10" d="M19.154,31.795c0,1.185-0.963,2.15-2.154,2.15
		c-1.19,0-2.154-0.966-2.154-2.15c0-1.192,0.964-2.156,2.154-2.156C18.191,29.639,19.154,30.603,19.154,31.795z"/>
</g>
</svg>
