<?xml version="1.0" encoding="utf-8"?>
<!-- Generator: Adobe Illustrator 16.0.3, SVG Export Plug-In . SVG Version: 6.00 Build 0)  -->
<!DOCTYPE svg PUBLIC "-//W3C//DTD SVG 1.1//EN" "http://www.w3.org/Graphics/SVG/1.1/DTD/svg11.dtd">
<svg version="1.1" id="Layer_1" xmlns="http://www.w3.org/2000/svg" xmlns:xlink="http://www.w3.org/1999/xlink" x="0px" y="0px"
	 width="26.076px" height="25px" viewBox="0 0 26.076 25" enable-background="new 0 0 26.076 25" xml:space="preserve">
<g>
	<path fill="#303841" d="M13.035,0.5c-4.855,0-8.796,3.95-8.796,8.804c0,4.032,2.695,7.506,6.582,8.5l1.84,6.406
		c0.046,0.178,0.199,0.289,0.374,0.289c0.176,0,0.333-0.111,0.379-0.287l1.844-6.408c3.891-0.994,6.579-4.469,6.579-8.5
		C21.846,4.45,17.893,0.5,13.035,0.5z M13.035,15.305c-3.313,0-5.998-2.691-5.998-6c0-3.311,2.685-5.997,5.998-5.997
		c3.313,0,6,2.686,6,5.997C19.035,12.613,16.349,15.305,13.035,15.305z"/>
	<path fill="#ED9A2E" d="M20.039,9.304c0,3.855-3.134,7-7,7c-3.865,0-6.997-3.146-6.997-7c0-3.863,3.132-7,6.997-7
		C16.905,2.304,20.039,5.441,20.039,9.304z"/>
</g>
</svg>
