<?xml version="1.0" encoding="utf-8"?>
<!-- Generator: Adobe Illustrator 16.0.3, SVG Export Plug-In . SVG Version: 6.00 Build 0)  -->
<!DOCTYPE svg PUBLIC "-//W3C//DTD SVG 1.1//EN" "http://www.w3.org/Graphics/SVG/1.1/DTD/svg11.dtd">
<svg version="1.1" id="Layer_1" xmlns="http://www.w3.org/2000/svg" xmlns:xlink="http://www.w3.org/1999/xlink" x="0px" y="0px"
	 width="50px" height="50px" viewBox="0 0 50 50" enable-background="new 0 0 50 50" xml:space="preserve">
<g>
	<path fill="#FFFFFF" d="M27.092,33.744c4.436,0.432,7.772,2.286,7.772,4.511c0,2.543-4.357,4.604-9.735,4.604
		c-5.377,0-9.734-2.061-9.734-4.604c0-2.222,3.326-4.073,7.751-4.509"/>
	<path fill="#FFFFFF" stroke="#BDBDBD" stroke-miterlimit="10" d="M34.026,18.756c0-4.913-3.981-8.897-8.896-8.897
		s-8.896,3.984-8.896,8.897c0,1.417,0.339,2.749,0.928,3.938h-0.01l0.081,0.149c0.052,0.1,0.107,0.199,0.16,0.296l4.917,9.066
		l2.82,5.205l7.737-14.271c0.057-0.097,0.107-0.196,0.161-0.296l0.079-0.149h-0.008C33.688,21.505,34.026,20.173,34.026,18.756z
		 M25.272,23.158c-2.531,0-4.582-2.053-4.582-4.584c0-2.529,2.05-4.581,4.582-4.581c2.529,0,4.58,2.052,4.58,4.581
		C29.852,21.105,27.801,23.158,25.272,23.158z"/>
</g>
</svg>
