<?xml version="1.0" encoding="utf-8"?>
<!-- Generator: Adobe Illustrator 16.0.3, SVG Export Plug-In . SVG Version: 6.00 Build 0)  -->
<!DOCTYPE svg PUBLIC "-//W3C//DTD SVG 1.1//EN" "http://www.w3.org/Graphics/SVG/1.1/DTD/svg11.dtd">
<svg version="1.1" xmlns="http://www.w3.org/2000/svg" xmlns:xlink="http://www.w3.org/1999/xlink" x="0px" y="0px" width="160px"
	 height="160px" viewBox="0 0 160 160" enable-background="new 0 0 160 160" xml:space="preserve">
<g id="Layer_1">
	<g opacity="0.99">
		<path fill="#E5E5E5" d="M79.486,2.601c42.803,0,77.5,34.697,77.5,77.5c0,42.802-34.697,77.499-77.5,77.499
			c-42.801,0-77.499-34.697-77.499-77.499C1.987,37.298,36.686,2.601,79.486,2.601L79.486,2.601z"/>
		<linearGradient id="SVGID_2_" gradientUnits="userSpaceOnUse" x1="38.9404" y1="83.6152" x2="120.0635" y2="83.6152">
			<stop  offset="0" style="stop-color:#283038"/>
			<stop  offset="1" style="stop-color:#333B44"/>
		</linearGradient>
		<path fill="url(#SVGID_2_)" d="M118.59,134.612H40.384c-0.798,0-1.443-0.646-1.443-1.444V34.061c0-0.798,0.646-1.442,1.443-1.442
			h78.237c0.797,0,1.442,0.645,1.442,1.442v99.139C120.032,133.966,119.388,134.612,118.59,134.612L118.59,134.612z"/>
		<polygon fill="#FFFFFF" points="46.922,38.45 46.922,119.111 100.696,119.111 100.696,107.786 112.052,107.786 112.052,38.45 
			46.922,38.45 		"/>
		<polygon fill="#E6E9ED" points="100.696,119.111 112.052,107.786 100.696,107.786 100.696,119.111 		"/>
		<path fill="#4CD964" d="M85.871,29.364v-2.24c0-3.529-2.855-6.384-6.385-6.384c-3.53,0-6.383,2.854-6.383,6.384v2.24H61.839
			v13.075h35.326V29.364H85.871L85.871,29.364z"/>
		<path fill="#0AC9B6" d="M79.486,23.931c1.764,0,3.192,1.431,3.192,3.193s-1.429,3.191-3.192,3.191s-3.192-1.429-3.192-3.191
			S77.723,23.931,79.486,23.931L79.486,23.931z"/>
		<path fill="#E6E9ED" d="M59.782,93.911h29.219v-29.22H59.782V93.911L59.782,93.911z M92.562,97.472H56.19V61.101h36.371V97.472
			L92.562,97.472z"/>
		<polygon fill="#0AC9B6" points="76.848,90.198 63.465,76.816 69.787,70.493 76.848,77.553 96.46,57.971 102.783,64.293 
			76.848,90.198 		"/>
	</g>
</g>
<g id="Layer_2">
</g>
</svg>
