<?xml version="1.0" encoding="utf-8"?>
<!-- Generator: Adobe Illustrator 16.0.3, SVG Export Plug-In . SVG Version: 6.00 Build 0)  -->
<!DOCTYPE svg PUBLIC "-//W3C//DTD SVG 1.1//EN" "http://www.w3.org/Graphics/SVG/1.1/DTD/svg11.dtd">
<svg version="1.1" id="Layer_1" xmlns="http://www.w3.org/2000/svg" xmlns:xlink="http://www.w3.org/1999/xlink" x="0px" y="0px"
	 width="50px" height="50px" viewBox="0 0 50 50" enable-background="new 0 0 50 50" xml:space="preserve">
<g>
	<linearGradient id="SVGID_1_" gradientUnits="userSpaceOnUse" x1="14.9712" y1="25" x2="28.6748" y2="25">
		<stop  offset="0" style="stop-color:#283038"/>
		<stop  offset="1" style="stop-color:#333B44"/>
	</linearGradient>
	<path fill="url(#SVGID_1_)" d="M28.675,16.052v1.024H24.71v-1.024H28.675z M27.012,18.281H24.71v1.024h2.302V18.281z M24.71,21.534
		h3.965V20.51H24.71V21.534z M27.012,22.743H24.71v1.021h2.302V22.743z M24.71,25.991h3.965v-1.02H24.71V25.991z M25.329,31.822
		c0,2.855-2.323,5.178-5.178,5.178c-2.854,0-5.179-2.322-5.179-5.178c0-1.852,0.972-3.534,2.559-4.461v-11.74
		c0-1.446,1.175-2.621,2.621-2.621c1.446,0,2.621,1.175,2.621,2.621v11.74C24.356,28.288,25.329,29.971,25.329,31.822L25.329,31.822
		z M24.306,31.822c0-1.571-0.874-2.987-2.279-3.704l-0.277-0.142V15.621c0-0.883-0.719-1.597-1.6-1.597
		c-0.882,0-1.598,0.714-1.598,1.597v12.355l-0.28,0.142c-1.405,0.717-2.277,2.133-2.277,3.704c0,2.292,1.865,4.153,4.155,4.153
		C22.442,35.976,24.306,34.114,24.306,31.822L24.306,31.822z M23.454,31.822c0,1.822-1.481,3.303-3.303,3.303
		c-1.821,0-3.304-1.48-3.304-3.303c0-1.495,1.008-2.806,2.455-3.188l0.188-0.05v-6.309h1.322v6.308l0.189,0.051
		C22.445,29.017,23.454,30.328,23.454,31.822L23.454,31.822z M20.313,29.619c-0.077-0.35-0.431-0.581-0.788-0.497
		c-1.253,0.284-2.127,1.379-2.127,2.665c0,0.362,0.297,0.659,0.661,0.659c0.363,0,0.659-0.297,0.659-0.659
		c0-0.653,0.46-1.234,1.099-1.377C20.171,30.326,20.394,29.974,20.313,29.619L20.313,29.619z M20.313,29.619"/>
</g>
</svg>
