<?xml version="1.0" encoding="utf-8"?>
<!-- Generator: Adobe Illustrator 16.0.3, SVG Export Plug-In . SVG Version: 6.00 Build 0)  -->
<!DOCTYPE svg PUBLIC "-//W3C//DTD SVG 1.1//EN" "http://www.w3.org/Graphics/SVG/1.1/DTD/svg11.dtd">
<svg version="1.1" xmlns="http://www.w3.org/2000/svg" xmlns:xlink="http://www.w3.org/1999/xlink" x="0px" y="0px" width="80px"
	 height="80.001px" viewBox="0 0 80 80.001" enable-background="new 0 0 80 80.001" xml:space="preserve">
<g id="Layer_1">
</g>
<g id="Layer_2">
	<g>
		<g>
			<g>
				<g>
					<polygon fill="#EFEFEF" points="62.042,62.042 17.958,62.042 17.958,20.867 26.189,20.867 26.189,22.784 19.876,22.784 
						19.876,60.124 60.124,60.124 60.124,22.784 53.814,22.784 53.814,20.867 62.042,20.867 					"/>
				</g>
				<g>
					<path fill="#EFEFEF" d="M32.964,27.145h-7.736V17.96h7.736V27.145z M27.146,25.228h3.9v-5.351h-3.9V25.228z"/>
				</g>
				<g>
					<path fill="#EFEFEF" d="M54.774,27.145H47.04V17.96h7.734V27.145z M48.958,25.228h3.897v-5.351h-3.897V25.228z"/>
				</g>
				<g>
					<rect x="32.005" y="20.867" fill="#EFEFEF" width="15.992" height="1.917"/>
				</g>
				<g>
					<rect x="18.919" y="31.044" fill="#EFEFEF" width="42.166" height="1.918"/>
				</g>
				<rect x="18.919" y="31.044" fill="#EFEFEF" width="42.166" height="30.448"/>
			</g>
		</g>
		<text transform="matrix(1 0 0 1 24.248 50.4341)" fill="#2CAF96" font-family="'OpenSans-Bold'" font-size="15.4873">1-14</text>
	</g>
</g>
</svg>
