<?xml version="1.0" encoding="utf-8"?>
<!-- Generator: Adobe Illustrator 16.0.3, SVG Export Plug-In . SVG Version: 6.00 Build 0)  -->
<!DOCTYPE svg PUBLIC "-//W3C//DTD SVG 1.1//EN" "http://www.w3.org/Graphics/SVG/1.1/DTD/svg11.dtd">
<svg version="1.1" xmlns="http://www.w3.org/2000/svg" xmlns:xlink="http://www.w3.org/1999/xlink" x="0px" y="0px" width="80px"
	 height="80.001px" viewBox="0 0 80 80.001" enable-background="new 0 0 80 80.001" xml:space="preserve">
<g id="Layer_1">
</g>
<g id="Layer_2">
	<g>
		<g>
			<g>
				<g>
					<polygon fill="#2CAF96" points="62.69,62.041 18.606,62.041 18.606,20.867 26.837,20.867 26.837,22.784 20.524,22.784 
						20.524,60.124 60.772,60.124 60.772,22.784 54.462,22.784 54.462,20.867 62.69,20.867 					"/>
				</g>
				<g>
					<path fill="#2CAF96" d="M33.613,27.145h-7.736v-9.185h7.736V27.145z M27.794,25.228h3.9v-5.351h-3.9V25.228z"/>
				</g>
				<g>
					<path fill="#2CAF96" d="M55.423,27.145h-7.734v-9.185h7.734V27.145z M49.606,25.228h3.897v-5.351h-3.897V25.228z"/>
				</g>
				<g>
					<rect x="32.654" y="20.867" fill="#2CAF96" width="15.992" height="1.917"/>
				</g>
				<g>
					<rect x="19.567" y="31.043" fill="#2CAF96" width="42.166" height="1.918"/>
				</g>
				<rect x="19.567" y="31.043" fill="#2CAF96" width="42.166" height="30.448"/>
			</g>
		</g>
		<text transform="matrix(1 0 0 1 24.8965 50.4341)" fill="#FFFFFF" font-family="'OpenSans-Bold'" font-size="15.4873">1-14</text>
	</g>
</g>
</svg>
