<?xml version="1.0" encoding="utf-8"?>
<!-- Generator: Adobe Illustrator 16.0.3, SVG Export Plug-In . SVG Version: 6.00 Build 0)  -->
<!DOCTYPE svg PUBLIC "-//W3C//DTD SVG 1.1//EN" "http://www.w3.org/Graphics/SVG/1.1/DTD/svg11.dtd">
<svg version="1.1" xmlns="http://www.w3.org/2000/svg" xmlns:xlink="http://www.w3.org/1999/xlink" x="0px" y="0px" width="80px"
	 height="80.001px" viewBox="0 0 80 80.001" enable-background="new 0 0 80 80.001" xml:space="preserve">
<g id="Layer_1">
</g>
<g id="Layer_2">
	<g>
		<g>
			<g>
				<g>
					<g>
						<polygon fill="#2CAF96" points="62.044,62.041 17.96,62.041 17.96,20.867 26.191,20.867 26.191,22.784 19.878,22.784 
							19.878,60.124 60.126,60.124 60.126,22.784 53.816,22.784 53.816,20.867 62.044,20.867 						"/>
					</g>
					<g>
						<path fill="#2CAF96" d="M32.966,27.145H25.23v-9.186h7.736V27.145z M27.148,25.228h3.9v-5.351h-3.9V25.228z"/>
					</g>
					<g>
						<path fill="#2CAF96" d="M54.777,27.145h-7.735v-9.186h7.735V27.145z M48.96,25.228h3.897v-5.351H48.96V25.228z"/>
					</g>
					<g>
						<rect x="32.007" y="20.867" fill="#2CAF96" width="15.992" height="1.917"/>
					</g>
					<g>
						<rect x="18.921" y="31.043" fill="#2CAF96" width="42.166" height="1.919"/>
					</g>
					<rect x="18.921" y="31.042" fill="#2CAF96" width="42.166" height="30.449"/>
				</g>
			</g>
		</g>
		<text transform="matrix(1 0 0 1 31.4609 51.9478)" fill="#FFFFFF" font-family="'OpenSans-Bold'" font-size="15">21</text>
	</g>
</g>
</svg>
