<?xml version="1.0" encoding="utf-8"?>
<!-- Generator: Adobe Illustrator 16.0.3, SVG Export Plug-In . SVG Version: 6.00 Build 0)  -->
<!DOCTYPE svg PUBLIC "-//W3C//DTD SVG 1.1//EN" "http://www.w3.org/Graphics/SVG/1.1/DTD/svg11.dtd">
<svg version="1.1" xmlns="http://www.w3.org/2000/svg" xmlns:xlink="http://www.w3.org/1999/xlink" x="0px" y="0px" width="80px"
	 height="80.001px" viewBox="0 0 80 80.001" enable-background="new 0 0 80 80.001" xml:space="preserve">
<g id="Layer_1">
</g>
<g id="Layer_2">
	<g>
		<path fill="#EFEFEF" d="M5.634,36.446v2.37h5.925c0.654,0,1.185,0.53,1.185,1.186c0,0.655-0.53,1.184-1.185,1.184H5.634v1.186
			h5.925c0.654,0,1.185,0.529,1.185,1.185c0,0.656-0.53,1.186-1.185,1.186H5.634v1.185h5.925c0.654,0,1.185,0.529,1.185,1.186
			c0,0.655-0.53,1.184-1.185,1.184H5.634v3.555h68.731V36.446H5.634z"/>
		<path fill="#848484" d="M12.744,40.001c0-0.655-0.53-1.186-1.185-1.186H5.634v2.37h5.925
			C12.214,41.186,12.744,40.656,12.744,40.001z"/>
		<path fill="#848484" d="M12.744,43.556c0-0.655-0.53-1.185-1.185-1.185H5.634v2.37h5.925
			C12.214,44.741,12.744,44.211,12.744,43.556z"/>
		<path fill="#848484" d="M12.744,47.112c0-0.656-0.53-1.186-1.185-1.186H5.634v2.37h5.925
			C12.214,48.296,12.744,47.767,12.744,47.112z"/>
		<polygon fill="#CECECE" points="74.366,36.446 5.634,36.446 15.114,28.15 64.886,28.15 		"/>
		<rect x="55.405" y="36.447" fill="#848484" width="7.11" height="15.405"/>
		<polygon fill="#848484" points="62.515,36.446 55.405,36.446 47.11,28.15 54.22,28.15 		"/>
	</g>
</g>
</svg>
