<?xml version="1.0" encoding="utf-8"?>
<!-- Generator: Adobe Illustrator 16.0.3, SVG Export Plug-In . SVG Version: 6.00 Build 0)  -->
<!DOCTYPE svg PUBLIC "-//W3C//DTD SVG 1.1//EN" "http://www.w3.org/Graphics/SVG/1.1/DTD/svg11.dtd">
<svg version="1.1" xmlns="http://www.w3.org/2000/svg" xmlns:xlink="http://www.w3.org/1999/xlink" x="0px" y="0px" width="80px"
	 height="80.001px" viewBox="0 0 80 80.001" enable-background="new 0 0 80 80.001" xml:space="preserve">
<g id="Layer_1">
</g>
<g id="Layer_2">
	<g>
		<path fill="#2CAF96" d="M5.634,35.729v2.37h5.925c0.654,0,1.185,0.53,1.185,1.186s-0.53,1.184-1.185,1.184H5.634v1.186h5.925
			c0.654,0,1.185,0.529,1.185,1.185s-0.53,1.186-1.185,1.186H5.634v1.185h5.925c0.654,0,1.185,0.529,1.185,1.186
			c0,0.654-0.53,1.184-1.185,1.184H5.634v3.555h68.731V35.729H5.634z"/>
		<path fill="#EFEFEF" d="M12.744,39.284c0-0.655-0.53-1.186-1.185-1.186H5.634v2.37h5.925
			C12.214,40.468,12.744,39.939,12.744,39.284z"/>
		<path fill="#EFEFEF" d="M12.744,42.838c0-0.655-0.53-1.185-1.185-1.185H5.634v2.37h5.925
			C12.214,44.023,12.744,43.493,12.744,42.838z"/>
		<path fill="#EFEFEF" d="M12.744,46.394c0-0.656-0.53-1.186-1.185-1.186H5.634v2.37h5.925
			C12.214,47.578,12.744,47.048,12.744,46.394z"/>
		<polygon fill="#1F917B" points="74.366,35.729 5.634,35.729 15.114,27.433 64.886,27.433 		"/>
		<rect x="55.405" y="35.729" fill="#EFEFEF" width="7.11" height="15.405"/>
		<polygon fill="#DDDDDD" points="62.515,35.729 55.405,35.729 47.11,27.433 54.22,27.433 		"/>
	</g>
</g>
</svg>
