<?xml version="1.0" encoding="utf-8"?>
<!-- Generator: Adobe Illustrator 16.0.3, SVG Export Plug-In . SVG Version: 6.00 Build 0)  -->
<!DOCTYPE svg PUBLIC "-//W3C//DTD SVG 1.1//EN" "http://www.w3.org/Graphics/SVG/1.1/DTD/svg11.dtd">
<svg version="1.1" xmlns="http://www.w3.org/2000/svg" xmlns:xlink="http://www.w3.org/1999/xlink" x="0px" y="0px" width="80px"
	 height="80.001px" viewBox="0 0 80 80.001" enable-background="new 0 0 80 80.001" xml:space="preserve">
<g id="Layer_1">
</g>
<g id="Layer_2">
	<g>
		<g>
			<polygon fill="#EFEFEF" points="62.042,62.041 17.958,62.041 17.958,20.866 26.189,20.866 26.189,22.785 19.876,22.785 
				19.876,60.124 60.124,60.124 60.124,22.785 53.814,22.785 53.814,20.866 62.042,20.866 			"/>
		</g>
		<g>
			<path fill="#EFEFEF" d="M32.964,27.145h-7.736v-9.186h7.736V27.145z M27.146,25.228h3.9v-5.351h-3.9V25.228z"/>
		</g>
		<g>
			<path fill="#EFEFEF" d="M54.774,27.145H47.04v-9.186h7.734V27.145z M48.958,25.228h3.897v-5.351h-3.897V25.228z"/>
		</g>
		<g>
			<rect x="32.005" y="20.866" fill="#EFEFEF" width="15.992" height="1.918"/>
		</g>
		<g>
			<rect x="18.919" y="31.043" fill="#2CAF96" width="42.166" height="1.918"/>
		</g>
		<rect x="18.919" y="31.044" fill="#EFEFEF" width="42.166" height="30.449"/>
		<g>
			<path fill="#2CAF96" d="M30.162,51.546c-0.41,0-0.768-0.043-1.072-0.129v-1.511c0.313,0.078,0.598,0.116,0.855,0.116
				c0.398,0,0.684-0.124,0.855-0.371c0.172-0.249,0.258-0.637,0.258-1.164v-8.027h1.816v8.015c0,1-0.229,1.762-0.686,2.285
				C31.732,51.285,31.057,51.546,30.162,51.546z"/>
			<path fill="#2CAF96" d="M40.275,49.028l-0.621-2.04h-3.123l-0.621,2.04h-1.957l3.023-8.602h2.221l3.035,8.602H40.275z
				 M39.22,45.465c-0.574-1.849-0.897-2.893-0.969-3.135c-0.073-0.242-0.124-0.434-0.156-0.574c-0.128,0.5-0.498,1.736-1.107,3.709
				H39.22z"/>
			<path fill="#2CAF96" d="M50.91,49.028h-2.309l-3.727-6.481h-0.053c0.074,1.144,0.111,1.961,0.111,2.45v4.032h-1.623v-8.567h2.291
				l3.721,6.417h0.041c-0.059-1.114-0.088-1.901-0.088-2.362v-4.054h1.635V49.028z"/>
		</g>
	</g>
</g>
</svg>
