<?xml version="1.0" encoding="utf-8"?>
<!-- Generator: Adobe Illustrator 16.0.3, SVG Export Plug-In . SVG Version: 6.00 Build 0)  -->
<!DOCTYPE svg PUBLIC "-//W3C//DTD SVG 1.1//EN" "http://www.w3.org/Graphics/SVG/1.1/DTD/svg11.dtd">
<svg version="1.1" xmlns="http://www.w3.org/2000/svg" xmlns:xlink="http://www.w3.org/1999/xlink" x="0px" y="0px" width="80px"
	 height="80.001px" viewBox="0 0 80 80.001" enable-background="new 0 0 80 80.001" xml:space="preserve">
<g id="Layer_1">
</g>
<g id="Layer_2">
	<g>
		<g>
			<polygon fill="#2CAF96" points="62.042,64.879 17.958,64.879 17.958,23.705 26.189,23.705 26.189,25.622 19.876,25.622 
				19.876,62.962 60.124,62.962 60.124,25.622 53.814,25.622 53.814,23.705 62.042,23.705 			"/>
		</g>
		<g>
			<path fill="#2CAF96" d="M32.964,29.983h-7.736v-9.186h7.736V29.983z M27.146,28.066h3.9v-5.351h-3.9V28.066z"/>
		</g>
		<g>
			<path fill="#2CAF96" d="M54.775,29.983H47.04v-9.186h7.735V29.983z M48.958,28.066h3.897v-5.351h-3.897V28.066z"/>
		</g>
		<g>
			<rect x="32.005" y="23.705" fill="#2CAF96" width="15.992" height="1.917"/>
		</g>
		<g>
			<rect x="18.919" y="33.881" fill="#2CAF96" width="42.166" height="1.918"/>
		</g>
		<rect x="18.919" y="33.882" fill="#2CAF96" width="42.166" height="30.449"/>
		<g>
			<path fill="#FFFFFF" d="M30.162,54.384c-0.41,0-0.768-0.043-1.072-0.129v-1.512c0.313,0.078,0.598,0.117,0.855,0.117
				c0.398,0,0.684-0.124,0.855-0.371c0.172-0.248,0.258-0.636,0.258-1.163v-8.027h1.816v8.015c0,1-0.229,1.762-0.686,2.286
				C31.732,54.123,31.057,54.384,30.162,54.384z"/>
			<path fill="#FFFFFF" d="M40.275,51.865l-0.621-2.039h-3.123l-0.621,2.039h-1.957l3.023-8.602h2.221l3.035,8.602H40.275z
				 M39.22,48.303c-0.574-1.848-0.897-2.893-0.969-3.135c-0.073-0.242-0.124-0.434-0.156-0.574c-0.128,0.5-0.498,1.737-1.107,3.709
				H39.22z"/>
			<path fill="#FFFFFF" d="M50.91,51.865h-2.309l-3.727-6.481h-0.053c0.074,1.144,0.111,1.961,0.111,2.45v4.031h-1.623v-8.566h2.291
				l3.721,6.416h0.041c-0.059-1.114-0.088-1.901-0.088-2.362v-4.054h1.635V51.865z"/>
		</g>
	</g>
</g>
</svg>
