<?xml version="1.0" encoding="utf-8"?>
<!-- Generator: Adobe Illustrator 16.0.3, SVG Export Plug-In . SVG Version: 6.00 Build 0)  -->
<!DOCTYPE svg PUBLIC "-//W3C//DTD SVG 1.1//EN" "http://www.w3.org/Graphics/SVG/1.1/DTD/svg11.dtd">
<svg version="1.1" xmlns="http://www.w3.org/2000/svg" xmlns:xlink="http://www.w3.org/1999/xlink" x="0px" y="0px" width="80px"
	 height="80.001px" viewBox="0 0 80 80.001" enable-background="new 0 0 80 80.001" xml:space="preserve">
<g id="Layer_1">
</g>
<g id="Layer_2">
	<g>
		<path fill-rule="evenodd" clip-rule="evenodd" fill="#2CAF96" d="M31.528,20.94c1.107-1.333,2.045-2.65,3.173-3.782
			c2.929-2.935,6.498-4.529,10.646-4.932c9.113-0.886,17.388,5.743,18.697,14.633c0.015,0.097,0.075,0.195,0.062,0.284
			c-0.232,1.471,0.622,1.83,1.868,2.196c4.54,1.334,6.874,4.686,7.678,9.153c0.642,3.569,0.208,7.051-1.616,10.257
			c-1.309,2.301-3.148,3.961-5.854,4.442c-0.356,0.063-0.729,0.11-1.088,0.08c-0.688-0.059-0.872,0.282-0.925,0.898
			c-0.291,3.286-1.776,5.96-4.347,7.981c-3.851,3.034-8.793,3.211-12.877,0.516c-0.588-0.391-0.934-0.404-1.47,0.093
			c-2.252,2.086-4.976,3.262-7.984,3.665c-7.143,0.957-13.63-0.8-19.416-5.059c-2.05-1.509-3.754-3.387-4.31-5.984
			c-0.183-0.855-0.549-1.155-1.364-1.359c-4.82-1.2-7.374-4.551-8.24-9.227c-0.722-3.904-0.192-7.683,2.056-11.075
			c1.227-1.85,2.866-3.183,5.092-3.658c0.521-0.112,1.059-0.205,1.588-0.205c0.557,0,0.681-0.254,0.735-0.745
			c0.51-4.586,2.854-7.897,7.12-9.652c3.529-1.452,6.967-0.991,10.176,1.09C31.147,20.696,31.369,20.837,31.528,20.94z
			 M40.648,48.279c4.376,0.197,8.827-3.559,9.024-8.61c0.2-5.172-4.029-9.207-8.643-9.405c-4.904-0.209-9.429,3.735-9.436,9.06
			C31.589,44.695,36.258,48.508,40.648,48.279z M23.349,30.277c-6.296,0.042-10.633,6.157-8.526,12.065
			c1.499,4.199,5.674,6.591,10.037,5.888c1.769-0.284,3.346-1.042,4.638-2.314c0.558-0.55,0.559-1.039-0.016-1.571
			c-0.606-0.565-1.262-1.075-1.893-1.61c-0.414-0.353-0.843-0.339-1.28-0.064c-0.227,0.144-0.437,0.311-0.666,0.451
			c-1.868,1.148-4.36,0.73-5.756-0.961c-1.422-1.722-1.348-4.266,0.171-5.889c1.625-1.737,4.01-1.94,6.027-0.513
			c0.897,0.635,1.058,0.63,1.916-0.051c0.496-0.397,1.005-0.773,1.489-1.185c0.746-0.635,0.755-1.161,0.031-1.83
			C27.78,31.086,25.719,30.286,23.349,30.277z M54.998,54.027c1.09-1.013,2.126-1.868,3.034-2.844
			c1.426-1.531,1.431-3.456,0.146-5.115c-2.13-2.752-6.888-2.256-8.671,1.247c-0.11,0.216,0.066,0.72,0.273,0.926
			c0.389,0.392,0.898,0.663,1.354,0.987c0.484,0.347,0.893,0.259,1.284-0.172c0.343-0.374,0.685-0.771,1.097-1.059
			c0.719-0.501,1.583-0.385,2.044,0.198c0.402,0.505,0.308,0.953-0.489,1.67c-1.503,1.354-3.025,2.689-4.569,3.994
			c-0.709,0.598-1.063,1.267-0.994,2.215c0.075,1.022,0.241,1.253,1.25,1.256c2.12,0.001,4.241,0.001,6.362-0.006
			c2.056-0.008,2.056-0.01,2.036-2.084c-0.01-0.943-0.27-1.206-1.224-1.212C56.987,54.021,56.042,54.027,54.998,54.027z"/>
		<path fill-rule="evenodd" clip-rule="evenodd" fill="#2CAF96" d="M40.645,43.758c-2.485-0.003-4.474-1.974-4.472-4.429
			c0.003-2.501,2.013-4.525,4.488-4.521c2.4,0.004,4.448,2.069,4.464,4.501C45.139,41.728,43.094,43.758,40.645,43.758z"/>
	</g>
</g>
</svg>
