<?xml version="1.0" encoding="utf-8"?>
<!-- Generator: Adobe Illustrator 16.0.3, SVG Export Plug-In . SVG Version: 6.00 Build 0)  -->
<!DOCTYPE svg PUBLIC "-//W3C//DTD SVG 1.1//EN" "http://www.w3.org/Graphics/SVG/1.1/DTD/svg11.dtd">
<svg version="1.1" xmlns="http://www.w3.org/2000/svg" xmlns:xlink="http://www.w3.org/1999/xlink" x="0px" y="0px" width="80px"
	 height="80.001px" viewBox="0 0 80 80.001" enable-background="new 0 0 80 80.001" xml:space="preserve">
<g id="Layer_1">
</g>
<g id="Layer_2">
	<g>
		<path fill="#1F917B" d="M40,9.915c-18.647,0-33.767,15.117-33.767,33.769v0.305c2.412-3.067,6.154-5.035,10.356-5.035
			c5.097,0,6.702,2.896,8.893,7.133c2.188-4.237,9.423-7.133,14.518-7.133c5.1,0,12.33,2.896,14.522,7.133
			c2.189-4.237,3.792-7.133,8.891-7.133c4.2,0,7.943,1.968,10.354,5.035v-0.305C73.768,25.031,58.648,9.915,40,9.915z"/>
		<path fill="#434A54" d="M51.257,63.378c-0.778,0-1.409,0.63-1.409,1.41c0,2.324-1.893,4.22-4.221,4.22
			c-2.325,0-4.22-1.896-4.22-4.22V37.545h-2.813v27.243c0,3.882,3.149,7.031,7.033,7.031c3.887,0,7.036-3.149,7.036-7.031
			C52.663,64.008,52.033,63.378,51.257,63.378z"/>
		<path fill="#2CAF96" d="M40,38.954c5.1,0,12.33,2.896,14.522,7.129c0-21.418-8.863-31.894-12.263-36.095
			C41.512,9.939,40.758,9.915,40,9.915c-0.758,0-1.511,0.024-2.257,0.074c-3.402,4.201-12.26,14.677-12.26,36.098
			C27.67,41.849,34.905,38.954,40,38.954z"/>
	</g>
</g>
</svg>
