<?xml version="1.0" encoding="utf-8"?>
<!-- Generator: Adobe Illustrator 16.0.3, SVG Export Plug-In . SVG Version: 6.00 Build 0)  -->
<!DOCTYPE svg PUBLIC "-//W3C//DTD SVG 1.1//EN" "http://www.w3.org/Graphics/SVG/1.1/DTD/svg11.dtd">
<svg version="1.1" xmlns="http://www.w3.org/2000/svg" xmlns:xlink="http://www.w3.org/1999/xlink" x="0px" y="0px" width="80px"
	 height="80.001px" viewBox="0 0 80 80.001" enable-background="new 0 0 80 80.001" xml:space="preserve">
<g id="Layer_1">
</g>
<g id="Layer_2">
	<g>
		<circle fill="#E0E1E2" cx="40" cy="40" r="28.433"/>
		<circle fill="#EFEFEF" cx="40" cy="40" r="16.404"/>
		<path fill="#EFEFEF" d="M40,70.621c-16.883,0-30.621-13.737-30.621-30.62C9.379,23.116,23.117,9.379,40,9.379
			c16.884,0,30.621,13.737,30.621,30.622C70.621,56.884,56.886,70.621,40,70.621z M40,13.754c-14.472,0-26.246,11.774-26.246,26.247
			c0,14.471,11.774,26.246,26.246,26.246c14.473,0,26.247-11.775,26.247-26.246C66.247,25.529,54.473,13.754,40,13.754z"/>
		<g>
			<path fill="#26B99A" d="M40,14.716c-0.603,0-1.093,0.489-1.093,1.093v1.093c0,0.605,0.491,1.095,1.093,1.095
				c0.604,0,1.093-0.489,1.093-1.095v-1.093C41.093,15.205,40.605,14.716,40,14.716z"/>
			<path fill="#26B99A" d="M40,61.739c-0.603,0-1.093,0.489-1.093,1.094v1.093c0,0.605,0.491,1.095,1.093,1.095
				c0.604,0,1.093-0.49,1.093-1.095v-1.093C41.093,62.228,40.605,61.739,40,61.739z"/>
			<path fill="#26B99A" d="M64.06,38.774h-1.094c-0.603,0-1.093,0.489-1.093,1.094c0,0.604,0.49,1.093,1.093,1.093h1.094
				c0.603,0,1.093-0.489,1.093-1.093C65.152,39.263,64.664,38.774,64.06,38.774z"/>
			<path fill="#26B99A" d="M17.035,38.774h-1.094c-0.604,0-1.094,0.489-1.094,1.094c0,0.604,0.49,1.093,1.094,1.093h1.094
				c0.604,0,1.094-0.489,1.094-1.093C18.129,39.263,17.64,38.774,17.035,38.774z"/>
			<path fill="#26B99A" d="M56.239,22.082l-0.773,0.774c-0.428,0.427-0.428,1.119,0,1.545c0.213,0.214,0.493,0.322,0.773,0.322
				s0.559-0.108,0.773-0.322l0.773-0.773c0.427-0.426,0.427-1.118,0-1.546C57.357,21.654,56.667,21.654,56.239,22.082z"/>
			<path fill="#26B99A" d="M22.988,55.333l-0.773,0.773c-0.427,0.428-0.427,1.119,0,1.546c0.214,0.213,0.493,0.321,0.773,0.321
				s0.56-0.107,0.773-0.321l0.773-0.773c0.427-0.427,0.427-1.118,0-1.546C24.107,54.906,23.417,54.906,22.988,55.333z"/>
			<path fill="#26B99A" d="M57.012,55.333c-0.428-0.427-1.119-0.427-1.546,0c-0.428,0.428-0.428,1.119,0,1.546l0.773,0.773
				c0.213,0.213,0.493,0.321,0.773,0.321s0.56-0.107,0.773-0.321c0.427-0.428,0.427-1.118,0-1.546L57.012,55.333z"/>
			<path fill="#26B99A" d="M23.762,22.082c-0.428-0.427-1.118-0.427-1.546,0c-0.427,0.428-0.427,1.12,0,1.546l0.773,0.773
				c0.214,0.214,0.494,0.322,0.773,0.322s0.56-0.108,0.773-0.322c0.427-0.426,0.427-1.118,0-1.545L23.762,22.082z"/>
		</g>
		<path fill="#424A60" d="M52.029,41.094H43.28c-0.603,0-1.093-0.488-1.093-1.093c0-0.605,0.49-1.094,1.093-1.094h8.749
			c0.604,0,1.094,0.488,1.094,1.094C53.123,40.605,52.634,41.094,52.029,41.094z"/>
		<path fill="#424A60" d="M40,37.813c-0.603,0-1.093-0.489-1.093-1.094v-12.03c0-0.604,0.491-1.093,1.093-1.093
			c0.604,0,1.093,0.489,1.093,1.093v12.03C41.093,37.323,40.605,37.813,40,37.813z"/>
		<path fill="#424A60" d="M40,44.374c-2.413,0-4.374-1.961-4.374-4.373c0-2.413,1.961-4.374,4.374-4.374
			c2.413,0,4.375,1.96,4.375,4.374C44.375,42.413,42.413,44.374,40,44.374z M40,37.813c-1.206,0-2.187,0.981-2.187,2.188
			c0,1.206,0.981,2.187,2.187,2.187c1.207,0,2.188-0.981,2.188-2.187C42.188,38.794,41.207,37.813,40,37.813z"/>
	</g>
</g>
</svg>
