<?xml version="1.0" encoding="utf-8"?>
<!-- Generator: Adobe Illustrator 16.0.3, SVG Export Plug-In . SVG Version: 6.00 Build 0)  -->
<!DOCTYPE svg PUBLIC "-//W3C//DTD SVG 1.1//EN" "http://www.w3.org/Graphics/SVG/1.1/DTD/svg11.dtd">
<svg version="1.1" xmlns="http://www.w3.org/2000/svg" xmlns:xlink="http://www.w3.org/1999/xlink" x="0px" y="0px" width="80px"
	 height="80.001px" viewBox="0 0 80 80.001" enable-background="new 0 0 80 80.001" xml:space="preserve">
<g id="Layer_1">
</g>
<g id="Layer_2">
	<g>
		<circle fill="#E0E1E2" cx="40.65" cy="40.494" r="28.433"/>
		<circle fill="#2CAF96" cx="40.65" cy="40.494" r="16.404"/>
		<path fill="#26B99A" d="M40.65,71.114c-16.883,0-30.62-13.737-30.62-30.621S23.767,9.873,40.65,9.873
			c16.884,0,30.621,13.737,30.621,30.621S57.536,71.114,40.65,71.114z M40.65,14.248c-14.472,0-26.246,11.774-26.246,26.246
			c0,14.471,11.774,26.247,26.246,26.247c14.473,0,26.247-11.775,26.247-26.247C66.897,26.022,55.124,14.248,40.65,14.248z"/>
		<g>
			<path fill="#26B99A" d="M40.65,15.209c-0.603,0-1.093,0.489-1.093,1.093v1.093c0,0.605,0.491,1.095,1.093,1.095
				c0.604,0,1.093-0.489,1.093-1.095v-1.093C41.744,15.698,41.256,15.209,40.65,15.209z"/>
			<path fill="#26B99A" d="M40.65,62.232c-0.603,0-1.093,0.489-1.093,1.094v1.093c0,0.605,0.491,1.094,1.093,1.094
				c0.604,0,1.093-0.489,1.093-1.094v-1.093C41.744,62.721,41.256,62.232,40.65,62.232z"/>
			<path fill="#26B99A" d="M64.71,39.268h-1.094c-0.603,0-1.093,0.489-1.093,1.094c0,0.604,0.49,1.093,1.093,1.093h1.094
				c0.603,0,1.093-0.489,1.093-1.093C65.803,39.756,65.314,39.268,64.71,39.268z"/>
			<path fill="#26B99A" d="M17.686,39.268h-1.093c-0.604,0-1.094,0.489-1.094,1.094c0,0.604,0.49,1.093,1.094,1.093h1.093
				c0.604,0,1.094-0.489,1.094-1.093C18.779,39.756,18.29,39.268,17.686,39.268z"/>
			<path fill="#26B99A" d="M56.89,22.575l-0.773,0.774c-0.428,0.427-0.428,1.119,0,1.545c0.213,0.214,0.493,0.322,0.773,0.322
				s0.559-0.107,0.773-0.322l0.773-0.773c0.427-0.426,0.427-1.118,0-1.546C58.008,22.147,57.317,22.147,56.89,22.575z"/>
			<path fill="#26B99A" d="M23.639,55.827L22.866,56.6c-0.427,0.428-0.427,1.119,0,1.546c0.214,0.214,0.493,0.321,0.773,0.321
				s0.56-0.107,0.773-0.321l0.773-0.773c0.428-0.427,0.428-1.118,0-1.546C24.758,55.399,24.067,55.4,23.639,55.827z"/>
			<path fill="#26B99A" d="M57.663,55.827c-0.428-0.427-1.119-0.427-1.546,0c-0.428,0.428-0.428,1.119,0,1.546l0.773,0.773
				c0.213,0.214,0.493,0.321,0.773,0.321s0.56-0.107,0.773-0.321c0.427-0.428,0.427-1.118,0-1.546L57.663,55.827z"/>
			<path fill="#26B99A" d="M24.412,22.575c-0.428-0.427-1.118-0.427-1.546,0c-0.427,0.428-0.427,1.12,0,1.546l0.773,0.773
				c0.214,0.214,0.494,0.322,0.773,0.322s0.56-0.107,0.773-0.322c0.428-0.426,0.428-1.118,0-1.545L24.412,22.575z"/>
		</g>
		<path fill="#424A60" d="M52.68,41.586h-8.749c-0.603,0-1.093-0.488-1.093-1.093s0.49-1.093,1.093-1.093h8.749
			c0.604,0,1.094,0.488,1.094,1.093S53.285,41.586,52.68,41.586z"/>
		<path fill="#424A60" d="M40.65,38.307c-0.603,0-1.093-0.489-1.093-1.094v-12.03c0-0.604,0.491-1.093,1.093-1.093
			c0.604,0,1.093,0.489,1.093,1.093v12.03C41.744,37.817,41.256,38.307,40.65,38.307z"/>
		<path fill="#424A60" d="M40.65,44.867c-2.412,0-4.374-1.961-4.374-4.374s1.961-4.374,4.374-4.374c2.413,0,4.375,1.961,4.375,4.374
			S43.063,44.867,40.65,44.867z M40.65,38.307c-1.206,0-2.187,0.981-2.187,2.187c0,1.207,0.981,2.188,2.187,2.188
			c1.207,0,2.188-0.981,2.188-2.188C42.838,39.288,41.857,38.307,40.65,38.307z"/>
	</g>
</g>
</svg>
