<?xml version="1.0" encoding="utf-8"?>
<!-- Generator: Adobe Illustrator 16.0.3, SVG Export Plug-In . SVG Version: 6.00 Build 0)  -->
<!DOCTYPE svg PUBLIC "-//W3C//DTD SVG 1.1//EN" "http://www.w3.org/Graphics/SVG/1.1/DTD/svg11.dtd">
<svg version="1.1" xmlns="http://www.w3.org/2000/svg" xmlns:xlink="http://www.w3.org/1999/xlink" x="0px" y="0px" width="80px"
	 height="80.001px" viewBox="0 0 80 80.001" enable-background="new 0 0 80 80.001" xml:space="preserve">
<g id="Layer_1">
</g>
<g id="Layer_2">
	<g>
		<g>
			<g>
				<g>
					<polygon fill="#2CAF96" points="62.042,62.042 17.958,62.042 17.958,20.867 26.189,20.867 26.189,22.784 19.876,22.784 
						19.876,60.124 60.124,60.124 60.124,22.784 53.814,22.784 53.814,20.867 62.042,20.867 					"/>
				</g>
				<g>
					<path fill="#2CAF96" d="M32.964,27.146h-7.737V17.96h7.737V27.146z M27.146,25.228h3.9v-5.351h-3.9V25.228z"/>
				</g>
				<g>
					<path fill="#2CAF96" d="M54.775,27.146H47.04V17.96h7.735V27.146z M48.958,25.228h3.897v-5.351h-3.897V25.228z"/>
				</g>
				<g>
					<rect x="32.005" y="20.867" fill="#2CAF96" width="15.992" height="1.917"/>
				</g>
				<g>
					<rect x="18.919" y="31.044" fill="#2CAF96" width="42.166" height="1.918"/>
				</g>
				<rect x="18.919" y="31.044" fill="#2CAF96" width="42.166" height="30.448"/>
			</g>
		</g>
		<g>
			<path fill="#FFFFFF" d="M29.933,49.991l-2.062-6.721h-0.053c0.074,1.366,0.111,2.279,0.111,2.736v3.985h-1.623v-8.566h2.473
				l2.027,6.55h0.035l2.15-6.55h2.473v8.566h-1.693v-4.055c0-0.191,0.003-0.412,0.009-0.662c0.006-0.25,0.032-0.915,0.079-1.993
				h-0.053l-2.209,6.709H29.933z"/>
			<path fill="#FFFFFF" d="M45.396,45.696c0,1.418-0.352,2.508-1.055,3.27c-0.703,0.761-1.711,1.142-3.023,1.142
				s-2.32-0.381-3.023-1.142c-0.703-0.762-1.055-1.855-1.055-3.282c0-1.426,0.353-2.515,1.058-3.267s1.716-1.128,3.032-1.128
				s2.323,0.379,3.02,1.137C45.047,43.184,45.396,44.274,45.396,45.696z M39.144,45.696c0,0.957,0.182,1.678,0.545,2.163
				c0.363,0.484,0.906,0.727,1.629,0.727c1.449,0,2.174-0.963,2.174-2.889c0-1.929-0.721-2.894-2.162-2.894
				c-0.723,0-1.268,0.243-1.635,0.729S39.144,44.739,39.144,45.696z"/>
			<path fill="#FFFFFF" d="M54.771,49.991h-2.309l-3.727-6.481h-0.053c0.075,1.146,0.112,1.961,0.112,2.45v4.031h-1.623v-8.566
				h2.291l3.72,6.416h0.042c-0.059-1.114-0.088-1.901-0.088-2.362v-4.054h1.635V49.991z"/>
		</g>
	</g>
</g>
</svg>
